<svg width="12" height="8" viewBox="0 0 12 8" fill="none" xmlns="http://www.w3.org/2000/svg">
<path d="M10.1157 0.69935C10.2818 0.478706 10.5953 0.434444 10.8159 0.600488C11.0365 0.766532 11.0808 1.08001 10.9148 1.30065L6.40646 7.29141C6.39061 7.31351 6.37278 7.33452 6.35303 7.35416C6.31134 7.39582 6.26355 7.42884 6.2122 7.45285C6.07985 7.51473 5.92386 7.51678 5.78779 7.45285C5.73644 7.42884 5.68865 7.39582 5.64696 7.35416C5.62721 7.33452 5.60938 7.31351 5.59353 7.29141L1.08523 1.30065C0.919185 1.08001 0.963447 0.766532 1.18409 0.600488C1.40474 0.434444 1.71821 0.478706 1.88425 0.69935L6 6.16847L10.1157 0.69935Z" fill="#BEB5B5" stroke="#176B87" stroke-linecap="round" stroke-linejoin="round"/>
</svg>
