<svg width="12" height="15" viewBox="0 0 12 15" fill="none" xmlns="http://www.w3.org/2000/svg">
<path d="M10.6875 5.625H9.4375V4.0625C9.4375 3.15082 9.07534 2.27648 8.43068 1.63182C7.78602 0.987164 6.91168 0.625 6 0.625H5.375C4.46332 0.625 3.58898 0.987164 2.94432 1.63182C2.29966 2.27648 1.9375 3.15082 1.9375 4.0625V5.625H0.6875C0.52174 5.625 0.362768 5.69085 0.245558 5.80806C0.128348 5.92527 0.0625 6.08424 0.0625 6.25V13.75C0.0625 13.9158 0.128348 14.0747 0.245558 14.1919C0.362768 14.3092 0.52174 14.375 0.6875 14.375H10.6875C10.8533 14.375 11.0122 14.3092 11.1294 14.1919C11.2467 14.0747 11.3125 13.9158 11.3125 13.75V6.25C11.3125 6.08424 11.2467 5.92527 11.1294 5.80806C11.0122 5.69085 10.8533 5.625 10.6875 5.625ZM3.1875 4.0625C3.1875 3.48234 3.41797 2.92594 3.8282 2.5157C4.23844 2.10547 4.79484 1.875 5.375 1.875H6C6.58016 1.875 7.13656 2.10547 7.5468 2.5157C7.95703 2.92594 8.1875 3.48234 8.1875 4.0625V5.625H3.1875V4.0625ZM10.0625 13.125H1.3125V6.875H10.0625V13.125Z" fill="#176B87"/>
<path d="M3.1875 10.9375C3.70527 10.9375 4.125 10.5178 4.125 10C4.125 9.48223 3.70527 9.0625 3.1875 9.0625C2.66973 9.0625 2.25 9.48223 2.25 10C2.25 10.5178 2.66973 10.9375 3.1875 10.9375Z" fill="#176B87"/>
<path d="M5.6875 10.9375C6.20527 10.9375 6.625 10.5178 6.625 10C6.625 9.48223 6.20527 9.0625 5.6875 9.0625C5.16973 9.0625 4.75 9.48223 4.75 10C4.75 10.5178 5.16973 10.9375 5.6875 10.9375Z" fill="#176B87"/>
<path d="M8.1875 10.9375C8.70527 10.9375 9.125 10.5178 9.125 10C9.125 9.48223 8.70527 9.0625 8.1875 9.0625C7.66973 9.0625 7.25 9.48223 7.25 10C7.25 10.5178 7.66973 10.9375 8.1875 10.9375Z" fill="#176B87"/>
</svg>
