<svg width="25" height="25" viewBox="0 0 25 25" fill="none" xmlns="http://www.w3.org/2000/svg">
<path d="M2.77778 3.47217C2.04107 3.47217 1.33453 3.76483 0.813592 4.28576C0.292658 4.80669 0 5.51323 0 6.24995L0 18.7499C0 19.4867 0.292658 20.1932 0.813592 20.7141C1.33453 21.2351 2.04107 21.5277 2.77778 21.5277H8.33333V3.47217H2.77778Z" fill="#009A49"/>
<path d="M8.33334 3.47217H16.6667V21.5277H8.33334V3.47217Z" fill="#EEEEEE"/>
<path d="M22.2222 3.47217H16.6667V21.5277H22.2222C22.9589 21.5277 23.6655 21.2351 24.1864 20.7141C24.7073 20.1932 25 19.4867 25 18.7499V6.24995C25 5.51323 24.7073 4.80669 24.1864 4.28576C23.6655 3.76483 22.9589 3.47217 22.2222 3.47217Z" fill="#009A49"/>
</svg>
